<svg width="66" height="30" viewBox="0 0 66 30" fill="none" xmlns="http://www.w3.org/2000/svg">
<path d="M11.7392 13.4966C12.1583 12.8993 12.6508 12.4086 13.2167 12.0246C13.7825 11.6299 14.3589 11.4326 14.9457 11.4326C15.5115 11.4326 15.9464 11.5926 16.2503 11.9126C16.5646 12.2326 16.7428 12.7446 16.7847 13.4486C17.1724 12.8406 17.6335 12.3553 18.1679 11.9926C18.7128 11.6193 19.2786 11.4326 19.8654 11.4326C20.4418 11.4326 20.8976 11.6193 21.2329 11.9926C21.5682 12.3659 21.7359 12.9579 21.7359 13.7686C21.7359 14.1739 21.6416 14.9099 21.453 15.9766L21.3587 16.5686C21.3063 16.8673 21.2696 17.0699 21.2486 17.1766C21.1858 17.5393 21.1229 17.9126 21.06 18.2966C21.0076 18.6806 20.9814 18.9899 20.9814 19.2246C20.9814 19.5126 21.0548 19.6566 21.2015 19.6566C21.3063 19.6566 21.4215 19.6246 21.5473 19.5606C21.673 19.4859 21.8302 19.3633 22.0188 19.1926L22.2074 19.6086C22.0712 19.8219 21.8354 20.0566 21.5001 20.3126C21.1648 20.5579 20.7718 20.6806 20.3213 20.6806C19.9335 20.6806 19.6611 20.5899 19.5039 20.4086C19.3467 20.2273 19.2681 19.9659 19.2681 19.6246C19.2786 19.2833 19.3677 18.6326 19.5354 17.6726L19.6454 16.9686C19.6559 16.8833 19.6821 16.7446 19.724 16.5526C19.7449 16.4459 19.7973 16.1099 19.8812 15.5446C19.9755 14.9793 20.0226 14.4619 20.0226 13.9926C20.0226 13.4699 19.9545 13.1126 19.8183 12.9206C19.6821 12.7286 19.4568 12.6326 19.1424 12.6326C18.7861 12.6326 18.3827 12.8139 17.9321 13.1766C17.492 13.5286 17.0991 13.9819 16.7533 14.5366C16.7218 15.0273 16.6485 15.7046 16.5332 16.5686L16.0145 20.5206H14.3484L14.8199 17.0006C15.0295 15.6779 15.1343 14.6539 15.1343 13.9286C15.1238 13.4166 15.0505 13.0753 14.9142 12.9046C14.7885 12.7233 14.5475 12.6326 14.1912 12.6326C13.8035 12.6326 13.3582 12.8353 12.8552 13.2406C12.3627 13.6459 11.9435 14.1366 11.5977 14.7126L10.8118 20.5206H9.19287L10.2145 12.8086L9.42864 12.4086L9.55439 11.8006L11.582 11.4326L11.9121 11.6086L11.7392 13.4966Z" fill="#9F224E"/>
<path d="M23.1905 13.0326C23.1486 12.8406 23.1015 12.7126 23.0491 12.6486C22.9967 12.5739 22.9233 12.5366 22.829 12.5366C22.6718 12.5366 22.4832 12.6433 22.2632 12.8566L22.0588 12.3926C22.1741 12.2219 22.3889 12.0246 22.7033 11.8006C23.0281 11.5659 23.3687 11.4486 23.725 11.4486C24.0917 11.4486 24.3537 11.5393 24.5109 11.7206C24.6785 11.9019 24.7885 12.1686 24.8409 12.5206L25.7054 18.5526L25.9255 20.5366L26.9314 18.5206L27.1515 18.0566C27.6126 17.0859 27.9531 16.2806 28.1732 15.6406C28.3932 15.0006 28.5032 14.3553 28.5032 13.7046C28.5032 13.5019 28.477 13.3259 28.4247 13.1766C28.3723 13.0273 28.3408 12.9419 28.3303 12.9206C28.2256 12.6646 28.1732 12.4459 28.1732 12.2646C28.1732 12.0086 28.2413 11.8113 28.3775 11.6726C28.5242 11.5339 28.7233 11.4646 28.9748 11.4646C29.2996 11.4646 29.5511 11.6033 29.7293 11.8806C29.9179 12.1473 30.0122 12.4993 30.0122 12.9366C30.0122 13.4699 29.9284 14.0193 29.7607 14.5846C29.593 15.1499 29.4044 15.6513 29.1948 16.0886C28.9853 16.5259 28.6814 17.1393 28.2832 17.9286C27.8221 18.8993 27.3296 19.8273 26.8057 20.7126C26.2922 21.6086 25.8521 22.3073 25.4854 22.8086C25.1501 23.3526 24.7519 23.7686 24.2908 24.0566C23.8297 24.3553 23.2796 24.5046 22.6404 24.5046C22.3889 24.5046 22.1112 24.4726 21.8074 24.4086C21.5035 24.3553 21.2834 24.2966 21.1472 24.2326L21.5401 23.0166C21.6554 23.1126 21.8335 23.1979 22.0746 23.2726C22.3156 23.3473 22.5828 23.3846 22.8762 23.3846C23.3372 23.3846 23.8035 23.2033 24.2751 22.8406C24.7466 22.4779 25.1867 21.9073 25.5954 21.1286H24.7466L23.1905 13.0326Z" fill="#9F224E"/>
<path d="M34.1974 20.5206L30.1041 8.49561H32.4045L35.4008 18.2289H35.4417L38.4461 8.49561H40.7466L36.6451 20.5206H34.1974Z" fill="#9F224E"/>
<path d="M40.3873 20.5206V11.6873H42.4258V13.0706H42.4667C42.917 12.1206 43.8011 11.5039 45.1191 11.5039C47.0266 11.5039 48.1154 12.7539 48.1154 14.8039V20.5206H46.0769V15.2206C46.0769 13.9623 45.5039 13.2539 44.3414 13.2539C43.1707 13.2539 42.4258 14.1206 42.4258 15.3956V20.5206H40.3873Z" fill="#9F224E"/>
<path d="M49.161 20.5206V8.49561H56.8071V10.3039H51.2731V13.5456H56.5042V15.2873H51.2731V18.7123H56.8071V20.5206H49.161Z" fill="#9F224E"/>
<rect x="0.5" y="0.5" width="65" height="29" rx="3.5" stroke="#E5E5E5"/>
</svg>
